<svg xmlns="http://www.w3.org/2000/svg" width="25.998" height="26" viewBox="0 0 25.998 26">
  <g id="Dresscode" transform="translate(-191.475 -138.06)">
    
    <path id="Trazado_969" data-name="Trazado 969" d="M14.653,11.585h0a5.016,5.016,0,0,0-2.209-1.619l1.494-7.02a.789.789,0,0,0,.057-.15c.139-.543-.282-1.054-1.251-1.52A11.332,11.332,0,0,0,10.921.6,14.447,14.447,0,0,0,6.106.021C4.9.09,4.253.423,4.182,1.009a.822.822,0,0,0,0,.189L3.088,8.312a4.483,4.483,0,0,0-2.673.8,1.162,1.162,0,0,0-.333,1.315c.158.4.829,1.428,3.645,2.362a22.977,22.977,0,0,0,7,1.173q.423,0,.83-.02a4.966,4.966,0,0,0,2.833-.766,1.191,1.191,0,0,0,.261-1.588M11.546,9.234A14.068,14.068,0,0,1,4.2,7.89l.871-5.666a6.315,6.315,0,0,0,.657.332A12.1,12.1,0,0,0,7.631,3.2a14.976,14.976,0,0,0,3.771.5q.284,0,.568-.011a5.814,5.814,0,0,0,.772-.078ZM4.03,8.964a15.148,15.148,0,0,0,6.2,1.382c.355,0,.719-.016,1.088-.046l-.114.536,0,0-.061.028a4.59,4.59,0,0,1-1.183.154,13.327,13.327,0,0,1-4.717-.789,5.665,5.665,0,0,1-1.176-.562l-.073-.063-.054-.046Zm2.134-7.9a13.429,13.429,0,0,1,4.475.538,10.331,10.331,0,0,1,1.662.619,3.32,3.32,0,0,1,.527.309,4.046,4.046,0,0,1-.9.126h0A13.762,13.762,0,0,1,7.885,2.2,11.119,11.119,0,0,1,6.135,1.6a4.131,4.131,0,0,1-.774-.424,3.867,3.867,0,0,1,.8-.12m7.585,11.3a4.006,4.006,0,0,1-2.241.54,21.354,21.354,0,0,1-7.459-1.1c-1.568-.52-2.806-1.243-3.01-1.76A.125.125,0,0,1,1.087,9.9a3.192,3.192,0,0,1,1.8-.528l-.026.284.01.063a1.131,1.131,0,0,0,.462.691c.025.021.05.041.071.061l.032.03.036.024a6.583,6.583,0,0,0,1.422.689,14.471,14.471,0,0,0,5.075.85,5.63,5.63,0,0,0,1.491-.2l.054-.015.049-.026c.017-.009.037-.017.058-.027a.911.911,0,0,0,.57-.554l.068-.209a3.712,3.712,0,0,1,1.519,1.11.151.151,0,0,1-.03.226" transform="matrix(0.985, -0.174, 0.174, 0.985, 194.75, 145.475)" fill="#fff"/>
  </g>
</svg>
